<mxfile host="app.diagrams.net" agent="Mozilla/5.0 (Windows NT 10.0; Win64; x64) AppleWebKit/537.36 (KHTML, like Gecko) Chrome/140.0.0.0 Safari/537.36" version="28.2.1">
  <diagram name="Page-1" id="sp2NY1FaOZcV-rJddWQ4">
    <mxGraphModel dx="1026" dy="547" grid="1" gridSize="10" guides="1" tooltips="1" connect="1" arrows="1" fold="1" page="1" pageScale="1" pageWidth="850" pageHeight="1100" math="0" shadow="0">
      <root>
        <mxCell id="0" />
        <mxCell id="1" parent="0" />
        <mxCell id="uLIR4AqjCjWGEGcUKFmw-2" value="" style="verticalLabelPosition=bottom;html=1;verticalAlign=top;align=center;strokeColor=none;fillColor=#2C8FE8;shape=mxgraph.azure.mobile;pointerEvents=1;" vertex="1" parent="1">
          <mxGeometry x="163" y="40" width="40" height="60" as="geometry" />
        </mxCell>
        <mxCell id="uLIR4AqjCjWGEGcUKFmw-4" value="&lt;p style=&quot;margin-top:.8pt;margin-right:0cm;margin-bottom:&lt;br/&gt;0cm;margin-left:1.0pt;margin-bottom:.0001pt&quot; class=&quot;MsoBodyText&quot;&gt;&lt;span style=&quot;color:#2B8FE7;&lt;br/&gt;mso-ansi-language:FR&quot;&gt;Appareils mobiles&lt;/span&gt;&lt;/p&gt;" style="text;html=1;align=center;verticalAlign=middle;whiteSpace=wrap;rounded=0;" vertex="1" parent="1">
          <mxGeometry x="138" y="10" width="102" height="30" as="geometry" />
        </mxCell>
        <mxCell id="uLIR4AqjCjWGEGcUKFmw-6" value="" style="shape=mxgraph.networks2.icon;aspect=fixed;fillColor=#FFFFFF;strokeColor=#2C8FE8;gradientColor=#5B6163;network2IconShadow=1;network2bgFillColor=none;labelPosition=center;verticalLabelPosition=bottom;align=center;verticalAlign=top;network2Icon=mxgraph.networks2.laptop;network2IconW=1;network2IconH=0.5734;gradientDirection=south;" vertex="1" parent="1">
          <mxGeometry x="535" y="44" width="97.67" height="56" as="geometry" />
        </mxCell>
        <mxCell id="uLIR4AqjCjWGEGcUKFmw-7" value="&lt;font style=&quot;color: rgb(44, 143, 232);&quot;&gt;Appareils traditionnels&lt;/font&gt;" style="text;html=1;align=center;verticalAlign=middle;whiteSpace=wrap;rounded=0;" vertex="1" parent="1">
          <mxGeometry x="530.32" y="13" width="125.68" height="30" as="geometry" />
        </mxCell>
        <mxCell id="uLIR4AqjCjWGEGcUKFmw-9" value="" style="endArrow=block;startArrow=block;html=1;rounded=0;startSize=2;sourcePerimeterSpacing=11;endSize=2;jumpSize=23;strokeWidth=4;startFill=1;endFill=1;strokeColor=light-dark(#2C8FE8,#EDEDED);" edge="1" parent="1">
          <mxGeometry width="50" height="50" relative="1" as="geometry">
            <mxPoint x="182.5" y="160" as="sourcePoint" />
            <mxPoint x="182.5" y="100" as="targetPoint" />
          </mxGeometry>
        </mxCell>
        <mxCell id="uLIR4AqjCjWGEGcUKFmw-10" value="" style="endArrow=block;startArrow=block;html=1;rounded=0;startSize=2;sourcePerimeterSpacing=11;endSize=2;jumpSize=23;strokeWidth=4;startFill=1;endFill=1;strokeColor=light-dark(#2C8FE8,#EDEDED);" edge="1" parent="1">
          <mxGeometry width="50" height="50" relative="1" as="geometry">
            <mxPoint x="581.8199999999999" y="160" as="sourcePoint" />
            <mxPoint x="581.8199999999999" y="100" as="targetPoint" />
          </mxGeometry>
        </mxCell>
        <mxCell id="uLIR4AqjCjWGEGcUKFmw-11" value="&lt;font style=&quot;color: rgb(255, 255, 255); font-size: 17px;&quot;&gt;&lt;b style=&quot;&quot;&gt;Couche d&#39;expérience&lt;/b&gt;&lt;/font&gt;&lt;div&gt;&lt;font color=&quot;#ffffff&quot;&gt;Les interfaces utilisateurs peuvent être créées&amp;nbsp;&lt;/font&gt;&lt;span style=&quot;color: white; font-family: &amp;quot;Arial MT&amp;quot;, sans-serif; font-size: 8pt; background-color: transparent;&quot;&gt;directement par les utilisateurs professionnels&lt;br&gt;pour créer la meilleure expérience utilisateur et permettre une itération rapide&lt;/span&gt;&lt;/div&gt;" style="rounded=1;whiteSpace=wrap;html=1;fillColor=#0031BE;" vertex="1" parent="1">
          <mxGeometry x="80" y="160" width="640" height="60" as="geometry" />
        </mxCell>
        <mxCell id="uLIR4AqjCjWGEGcUKFmw-13" value="" style="endArrow=block;startArrow=block;html=1;rounded=0;startSize=2;sourcePerimeterSpacing=11;endSize=2;jumpSize=23;strokeWidth=4;startFill=1;endFill=1;strokeColor=light-dark(#2C8FE8,#EDEDED);exitX=0.158;exitY=-0.038;exitDx=0;exitDy=0;exitPerimeter=0;" edge="1" parent="1" source="uLIR4AqjCjWGEGcUKFmw-15">
          <mxGeometry width="50" height="50" relative="1" as="geometry">
            <mxPoint x="180" y="260" as="sourcePoint" />
            <mxPoint x="181.5" y="220" as="targetPoint" />
          </mxGeometry>
        </mxCell>
        <mxCell id="uLIR4AqjCjWGEGcUKFmw-14" value="" style="endArrow=block;startArrow=block;html=1;rounded=0;startSize=2;sourcePerimeterSpacing=11;endSize=2;jumpSize=23;strokeWidth=4;startFill=1;endFill=1;strokeColor=light-dark(#2C8FE8,#EDEDED);" edge="1" parent="1">
          <mxGeometry width="50" height="50" relative="1" as="geometry">
            <mxPoint x="584.8199999999999" y="280" as="sourcePoint" />
            <mxPoint x="584.8199999999999" y="220" as="targetPoint" />
          </mxGeometry>
        </mxCell>
        <mxCell id="uLIR4AqjCjWGEGcUKFmw-15" value="&lt;font color=&quot;#ffffff&quot;&gt;&lt;span style=&quot;font-size: 17px;&quot;&gt;&lt;b&gt;Couche logique&lt;/b&gt;&lt;/span&gt;&lt;/font&gt;&lt;br&gt;&lt;div&gt;&lt;span style=&quot;color: white; font-size: 8pt; background-color: transparent;&quot;&gt;La logique métier peut être développée uniquement avec des outils LC/NC. Cela permet de réduire les coûts de&amp;nbsp;&lt;/span&gt;&lt;span style=&quot;background-color: transparent; color: light-dark(white, rgb(18, 18, 18)); font-size: 8pt;&quot;&gt;communication entre l&#39;entreprise et les développeurs, car les utilisateurs &lt;/span&gt;&lt;span style=&quot;background-color: transparent; color: light-dark(white, rgb(18, 18, 18)); font-size: 8pt;&quot;&gt;métier connaissent parfaitement la logique métier requise.&lt;/span&gt;&lt;/div&gt;&lt;p style=&quot;margin-right: 0.9pt; line-height: 110%;&quot; align=&quot;center&quot; class=&quot;MsoNormal&quot;&gt;&lt;span style=&quot;font-size:8.0pt;mso-bidi-font-size:11.0pt;line-height:110%;mso-ansi-language:&amp;lt;br/&amp;gt;FR&quot;&gt;&lt;/span&gt;&lt;/p&gt;" style="rounded=1;whiteSpace=wrap;html=1;fillColor=#0031BE;" vertex="1" parent="1">
          <mxGeometry x="80" y="280" width="640" height="60" as="geometry" />
        </mxCell>
        <mxCell id="uLIR4AqjCjWGEGcUKFmw-16" value="" style="endArrow=block;startArrow=block;html=1;rounded=0;startSize=2;sourcePerimeterSpacing=11;endSize=2;jumpSize=23;strokeWidth=4;startFill=1;endFill=1;strokeColor=light-dark(#2C8FE8,#EDEDED);" edge="1" parent="1">
          <mxGeometry width="50" height="50" relative="1" as="geometry">
            <mxPoint x="179.5" y="400" as="sourcePoint" />
            <mxPoint x="179.5" y="340" as="targetPoint" />
          </mxGeometry>
        </mxCell>
        <mxCell id="uLIR4AqjCjWGEGcUKFmw-17" value="" style="endArrow=block;startArrow=block;html=1;rounded=0;startSize=2;sourcePerimeterSpacing=11;endSize=2;jumpSize=23;strokeWidth=4;startFill=1;endFill=1;strokeColor=light-dark(#2C8FE8,#EDEDED);" edge="1" parent="1">
          <mxGeometry width="50" height="50" relative="1" as="geometry">
            <mxPoint x="586.8199999999999" y="400" as="sourcePoint" />
            <mxPoint x="586.8199999999999" y="340" as="targetPoint" />
          </mxGeometry>
        </mxCell>
        <mxCell id="uLIR4AqjCjWGEGcUKFmw-18" value="&lt;b&gt;&lt;span style=&quot;font-size: 11.5pt; font-family: Arial, sans-serif; color: white;&quot;&gt;Couche API syst&lt;/span&gt;&lt;span style=&quot;font-size: 11.5pt; color: white;&quot;&gt;&lt;font face=&quot;Arial MT, sans-serif&quot;&gt;è&lt;/font&gt;&lt;/span&gt;&lt;span style=&quot;font-size: 11.5pt; color: white;&quot;&gt;me&lt;/span&gt;&lt;/b&gt;&lt;br&gt;&lt;div&gt;&lt;font color=&quot;#ffffff&quot;&gt;&lt;span style=&quot;font-size: 8pt; font-family: &amp;quot;Arial MT&amp;quot;, sans-serif;&quot;&gt;Les développeurs de logiciels codent toujours les couches système, ce qui nécessite un savoir-faire technique important&lt;br&gt;(c&#39;est-à-dire SQL ou noSQL pour interroger les bases de données de manière&amp;nbsp;&lt;/span&gt;&lt;/font&gt;&lt;/div&gt;" style="rounded=1;whiteSpace=wrap;html=1;fillColor=#0031BE;" vertex="1" parent="1">
          <mxGeometry x="80" y="400" width="640" height="60" as="geometry" />
        </mxCell>
        <mxCell id="uLIR4AqjCjWGEGcUKFmw-19" value="" style="html=1;verticalLabelPosition=bottom;align=center;labelBackgroundColor=#ffffff;verticalAlign=top;strokeWidth=2;strokeColor=#2C8FE8;shadow=0;dashed=0;shape=mxgraph.ios7.icons.cloud;" vertex="1" parent="1">
          <mxGeometry x="104" y="531" width="80" height="30" as="geometry" />
        </mxCell>
        <mxCell id="uLIR4AqjCjWGEGcUKFmw-20" value="&lt;font style=&quot;color: rgb(44, 143, 232);&quot;&gt;Nuage&lt;/font&gt;" style="text;html=1;align=center;verticalAlign=middle;whiteSpace=wrap;rounded=0;" vertex="1" parent="1">
          <mxGeometry x="92" y="568" width="90" height="30" as="geometry" />
        </mxCell>
        <mxCell id="uLIR4AqjCjWGEGcUKFmw-23" value="" style="html=1;verticalLabelPosition=bottom;align=center;labelBackgroundColor=#ffffff;verticalAlign=top;strokeWidth=2;strokeColor=#2C8FE8;shadow=0;dashed=0;shape=mxgraph.ios7.icons.data;" vertex="1" parent="1">
          <mxGeometry x="406" y="530.95" width="60" height="37.05" as="geometry" />
        </mxCell>
        <mxCell id="uLIR4AqjCjWGEGcUKFmw-25" value="" style="endArrow=block;startArrow=block;html=1;rounded=0;startSize=2;sourcePerimeterSpacing=11;endSize=2;jumpSize=23;strokeWidth=4;startFill=1;endFill=1;strokeColor=light-dark(#2C8FE8,#EDEDED);" edge="1" parent="1">
          <mxGeometry width="50" height="50" relative="1" as="geometry">
            <mxPoint x="141" y="520" as="sourcePoint" />
            <mxPoint x="141" y="460" as="targetPoint" />
          </mxGeometry>
        </mxCell>
        <mxCell id="uLIR4AqjCjWGEGcUKFmw-26" value="" style="shape=image;verticalLabelPosition=bottom;labelBackgroundColor=default;verticalAlign=top;aspect=fixed;imageAspect=0;image=data:image/png,iVBORw0KGgoAAAANSUhEUgAAAD4AAAA0CAYAAADSWosiAAAAAXNSR0IArs4c6QAAAARnQU1BAACxjwv8YQUAAAAJcEhZcwAADsMAAA7DAcdvqGQAABXTSURBVGhDzZr5j13Hld8/p+ret/Xr9bFfL1zEVSIpbhZl0ZHHFi2PPeOZjA07E0wSYBAgAZK/IojyFwQJ8nN+CGCMkJnByEbGm0ayZY9I7RspihS35tZs9vp6ef22W3XyQ9V7/UjREhF4Ah/ist92b9VZ6pzv+VaJqiqfJxovQI3HAQIYBUFQEUARfPdHILJ1uyqqivf+M1d3aBHBGIO1tve6/+8/hcgjKR5fqHg8YDBBaQUvIFFxQaJZ7p9sV/kHr37pV1JEetc/lTyy4ioK0asSP/QYPIIBRKPiYvrv7kn/MP2K9yvbLw++/13LFyre/TaorYDD4BAUj8VjMID1IRYwBpXg+4fJFwwH/x+U5lEURxUFMsB7UHV49TSaGaQJ+ZwhJ0riFVEDcZ3+vssXKK6gDi9ChqAO1Ct3lpu8eXGedHCAI/tG2TEoFFHEC2IMxjw83H+f5BFmqAhgVbAejBjurjV4/coSL/7jLD//eJUba9AiQU3w9Ofa8vdE+hTvn2wvo4FYRA1G47oV2LVzjJNPH0ALA/zivSV+dm6NmZqjoxIqWS/SuwkxLJe+9Hb/+/u/7PswBl3MLxqf1f/crV/f//6LRNSrIuGx96ckE58TRlYgI8OrAQzLmfDKlTVeenue2oby/JOjfO/oMPtHLakREI2ZHsDiu9k7TjzEUSx+ujVueKnxdwIaXnk8IopgECUoLiY+UfG4UGb1YUGs92MLQJyqdgfqDYagKmECEuuuQEYHdYbEJ4gRlhVevbbJ3765wPxKm9OHR/ju8WEOjOUoWDDqEQWRUPYUMHiQ4J9ucATFY5GUoEjwqGB6pgpGFDUxErvKBLU9YDTgi552xAH6/96nuIYJqWQAeLVhGPGY6A0vwaqiFust3nmwyqoYXrvW5K/PznNvaZOvHR7mu8crHKjkKBiPQTESJ9QXiUG5CFYA1Ed3C2q6RlAkls5wjwW1W88xW8sIJCiu8ekaI1hAzWfLq3hVFR8TkrTx4vFYXLSy9SkqhpZmeIRULAkC3uHEgRHq3vLG9U1eeuset+9tcmr/GN85uY3HJywFo6QqJF3QIjZAHg2KhSwTqocoiFoUiwqoeNR0MBoM7iVBMfHWCJMlRFR4H9BkiBCNRg0qP1hixatTVYOqR8lQVQwGFWgprLaFhc0OtXqLjoNiIaU6kGO8ZDAJqHekCB2xvHlzk799/R4zd5s8dWCYP316jCPVAoNGMJqFSYkFoxjNEDzOSDQyWDUYTUCDcioeFYeoB7GAiTBZQRQTwzusbY8Xj8Y80Kciop+Fv6Lq1KsEYIIDDCKWphou1xy//KTGhZsrbG5s4p1F0hw7xgt8/fAoJ3aUGE09eVWsGOrG8NadNn9zZpbLN2sc2zPM95+Z4OhUiaLpC0lRTEAGIN32RkMHoFtQOKxxpaVCraNstDMyF8LbWsNgmjCaSyhKxBtGY9o0XT/3lpg8AKVFvWrAzllMERZvLFfWlR+eWeS1CzVGR/Mc2jVMqZRnZm6dqzcWmShb/uxklW8cGGSyaEgcOAPrVnhvtsmPzs5xYWaDfY+N8tzRMaaHAFWMWIrWUkyFYgrFBApGKFpIrUfI4iJL8ViaDq7VWrx+dYWLt1ZoNxqIeHKFPHunx/mD/eMcrCTk8aTiEQEVc18v0E2w/RlOnDoNGNyDV6wkdMTwi083+R8vz1IaKPAvT1cZNussrK4xNDrG1dmMV9+9R6ft+dNTU/zJ4WF2lgSDx1uhLYbzs21efH2JN65nuDShXOiQ0iEvloE0ZbBoGSo5xspKdShl+1iRx8ZKTJQM5RQwhlobzs3W+fn7c3w4s0a5XGDPdJHEKrfmPYsrni/tKvIXX53g0HieAa+IeLzRGOIhoqS3xrsX2Bde+C8viEr0RvB4JsK52Q3OXltnZNjwzONl7szc4d0PZthTHeSrh8YpD+a5NCecm2kgokyOJgwVwIjDAJWhlOpYgUY7Y2a5xWpmmKoOcWgix0SxTaoNNtY2uDW3yUfXN3n7Sp3zs01ur3s2SFjxwhs3W/zd2Xmuz61zfP8ozz+zg93bB9gzXebQnm0sr8PlmUUGS5b9O0vk+lpk0/NwSHJd7/cp/p9f6OY+FR+quQjrHi7O1bg13yBJSxzaO8GXntjF7skRUFhsCFeXLXfm18nWF9m9LWX7aJF8LF0Ww8RgwlQlpZ11mF9qMDpgef7YCN95qsLXnqxw6nCVoweqTFXK5KxlZbXFJzNLvHW1xlszLd6ZaVJ3wvNPT/ODU1UK2Tqv/eo9FucWOLhngtW2cPXWGpUR4djeQQbEId5jzFY//1mle4r/pxdQAygOByJYMQwNpOQKCdcXHReurFJME/ZPF5lfzfjR2Xu8+u4S6/U6J3bn+faJCkd2DTOcz5FisdgeDqwMWCZGCzQ7nkvXV7i31KAylGfXSEo1BzsGhKNTBU7tH+TE/kEmxsusu5Qbyy1q9Q7T2wb4Z48PcqhiGM6njFeH2ba9yty65cxHi/hOk2cPj3N4ukRZHRZBxSAPNEoPKh7quIay5CWLUDDBiWEDwyvX6vz12QXuLMPocJHGRh232eLo7jKnj41yYmeJasFi1WNwpEZDzY3QUcTREcOnKxkvvTPPb84tUh0b4PtfmeQP9hYZSYRUYzY3QsMIcy3lw9t1Xju/zIUbTYZK8EcnRvjDQ9tQ4JdX6/yfN+5SbzZ5/kiFf/HlCXaUhaJ6RIPidD2OR2MUBNAQ8WknQlajDsTjvUM00EAqlgUsP72a8cNfL3DjXoO92+Cfn9zG6YNlHisKZa9IFlCdSzLUGgw5rBrEB3ztgbYYrq9n/PjdOf7xg9vsGrX8+bOP8fTecUpG8c6TIYgBMUomhlsbwqsf1/jpO3eotZUn9k+Rt5ZLl+5SyinfOTXFt4+Msb0ARjOSgAbwcX0HVRXUf9bjnVDMAjT0Ho/BiiBqcCJcWvX81Zl7nPl0hZ0TI3zvKxVO7cwxljhS5xAfujcRcMbhjCAYrM+weJQEhwl4WoRbG44PZ2qIdxzdNcL0SD6UoV4FBhNLUSaW5Uw4c2OTH769zFu3MlJb5MSk4V+dKvONfUXGen1GqE0ipvcJXR+rZ6ttjIo7VQ0NgMM7j0qClQBZ79Q9/+vXc7xybp59u4b5y+em+dJknoI4xLdJvcfblEwSRA1Jt28QD9oBUZwkODVY9SQ+w4vF2QQQjFdUPUIn9AUigaUlRJxTjxOoa8qZuQ7/80yNSzcbfPPwEP/xuRH2FTyp62DEggkhrl0vRwWBz4Q6gDGqWK+IVwSLaICQNeAfLi3x60uzjFeE758a41g1pQSkzpDzAdY6MlQCmhJ1AVcjeJMnkzzhqVlA/5JgxJCoJ/Ee4z2J62Cdw2hYWl5sQHjeB3iqQgnl2Ykc//bkIEdGHJcu3OE3789Tc0LH5MhMEvg/7yCikoCPu36/X2mCcXyvQUDBiKACV5YzfnVpibZ6Th+f5OR0mSErWLpetYjNYUxCAqSiwaqxa4ymwKohVYuQoMbixIR+ynjECpKkSFLAmHwogr3nWIgKqTpGTMazU3m+fXwEjOOXF5Z571aTtgkOAMUYGxqWnnpBHoDpEM0AgPOKU/De0/DKRzOrXF/M2DM9ypf3DjNcsFgIE7MgiUEkISEl7bYFxoSMSsDiKQ4LoZXEhs0HCaXFdCdkLGosKqHZMFiCeUMXlyIkBkQ8w3l4as8AB/cOc3ulw5uXV5lvKKGfC8Cpi0keXsO3xKgBLPjE4o3BWlhpwiczq7jMcPxAlcmBXFi/sdNBwREJSDyo4mOzEVIbJF1jiIJVxIAFEhWMl7AToSEku1MKr+L0FaxXEjTgAp9gvbBzKMep/RUG0pRP7qwzs9QOJIeY+0I79B8a6fGef3tiFIPvWtiEnunWiuNWLaM6UuLgZJGRHBht43D4+AyjMeyj5QTBhGQce+bwzCA+EA2hDQuUkbHhb49xiTcT1ycOoYPQxktGFhmXwQSeqObYv7PE3Jrj8nyLDYR24HbAZfH+7poODnlgBEz3y25LaES4s9ZkbjNjbDhlsiQUxWNjmGqk/US1t38GIDiQ0FnfH1hdL0bvdz+iO5MHp6QRRAUju1hhFBCvpJmnWjTsqKZkKtxdabPZAY/gVfD3JbHu6/D8rTkpRlCMKuK7AEBYbrRpZJ5ySRmwgSAQFYwGoCPiwITpBKak98QtPXpXqKkqIQkFmHi/rl1DdWkjJBAWXhK8JBgSbFTAqFJKLePDZQq5lNXVBo1GFhgeQO1WWPeWdpzg1rCKCfHXwdACzXCqtBotrFfKuVAfM+Px0kGkExKFJr1ktTX/6NkYGf3X1suYevq+C2AjgA6EUGgiAAnLR7EOrI+7tSHDUsqlFEXImhmdjgvDGkJEigNcj3LeqjJdMd1QT/AkZDHniCqpM9AJv1a1OHKR7AtJKYRVWLviI/C4z/WPJv02Ik4uLDyD0ZAlxARaaSuJCeI9aAbicKKBkvQRpRGoqS4bH8y7NQbBdoAmOMnhjAWEYhqQWKsd+UAl0rxdz8SNg573Yvg+qjwQ6vdJlzkhliERvAhqIiJTR6aeeuZoA2k+oZCGJCoSymGYbagvvfL2wDBx4YUw7MZ/ZbBEIS8sbRo2WiA4rLb6klkIxlBp+0L3dyDd2qu9wwSKxk0FMRkinkbHMbfWZL3lGBksMphPSCJz37XnFtv6cImhroG1iDdv31Zg20jC7EqD22uOpu8yYSHxbGWNB+QhHz1UfsvtDxUlJlZB1dKRhOWm4/Z8nVRgujJAMYWY1yMCjQN0Iz5K/7AB3xmHaIbxkCLsGEk4MFVkY6PO+zdq3G0qDZPiJHii35qfZ9X/VwlEYbwk8GghKSZsdIRLdze5eXuDHSM5dldy5GOSFDEPXAG99e2v9CTkfg3/WTF4D2MpPP3YCNWi4d2LS5yfb9JyNvLdYUIhTsD1b9/9TiwQtq26+Dq0mxmqjo7CzbU2b15ZZbPlOby9xIHxhITQRvcAUrzz88Iqst0WJSHzSuY9BZTj00VO7Bpidc3z+ofrzK1maB/QCZ2T4oiwUNlaWH3y2yJiC1L2f7v1a9WgfHfNO1FWWsrbN+p8dHuVSqXAU3uHmCoYrA/b2F1jfZ7CXTHBc4FgFBNOGhmFybLhq8fHmJosc25mg1fP15mta8Dn3uOcw7kMcRn4DK8ZXgOh31OqL9l0pV/ZLvjxPTy4pbpC6MdVcSSsZglnbzZ45aNFPMrXjgfaK6cx5NDAA0T0+EViIKAp1VCsurjHGuWx7QV2Pb6NRVvkx+fr/ORigzsNpWMFcFg8AcqEloXYl29JMGvvX5937zNQvHqG65ksLKl6Jrx5u8lL7y2xuOE5fWSKbx0eYyQJ0JmuEXuGfgSPgwYYaULnZRRUhDUVPrq1xpWb87R9h4VGh797e5a/+WCZyxuehk1QE3owUUC2joNpX4h2HbK1/MLG3sOdoj2ApIAzCfNtwy+vrPPib+5y7k6b6elxnn1ynO0Fg2gbTwvExXFCDX8UEdVMOxicgvEOI5b5Frx8aZWfvHePlbrj6KEq5XLKR5cXWV1p8dS+Yb51vMLxiTzbErDe4VFcbE2NhJNQ0u08I0oIpypCyxg8FXY9wvuAz0PHBm2Fa7Umr15Y5O1rDdY6RTY7QsFkfPP4CH98pMyOopKjQ0oudoLB2Ftr/beLqGaaqcGpAzJWNeGld2v8+M0VrMAfnhznmYNligXD5bst/uGdOa7eqzM6XOTrB8f46t4Bdo8kFAPjEPr1qHEP6wmxO49RoA4fThKhoniNpxtsjk21zG86PrlR461P7rLSarF/9ySHdlZZWGrxyjsLLGxkfP1Yhe+dHGbvMOTVx+3lYLRHU9x7VRUyn4GFN2br/Lef3WKpUeLPnqkyXWyxMn+PfY9tY9/UGJdXPX91doUPrm9QNhlPbMtzdPcgR/cMsqeaMpYX8kBCYEsNPuLirRZR8XFb2uCAJsp6Zrhdc3x4q85HN9dYWm2yu1rk2UNDPF4tMVpIWW96zlxr8Pdvr1Jbb/H8kwP8+Zcr7B0Mm4RegrtDJ/f5EhT3kdG0wsuf1vivP71KcazKX357ivrcMh+fv8bxI7vZt3Ocd6/UePnDFTY1x2SlSKfeob7aoFxy7BiH3eNFdo8PMzlaYKiYUMwZ8haS2MmpB++VVubZaHvmax1u3Nvg+sImN5bazK47am1IEuHZx4f5wdPb2D1iuX53ifNXZimMjNDMV/nZW4v4Rot/f3qKP3qiRCo+Esz2ERVXp3gTODernJtv8t//fobraylfOVHhyV15Ep+x2VYu3mzw8dUFhospz52Y5NjOMp22cvlOnWsLa8yuNlnb6IAK+VyOwcFBxgZLDOWUnMnwktH2hrbLsdaA2toa66s1snbGQLHIeCXP5LYCYhM+ubXK4kqTp/aO8dyxUdqdOh9cvMPu6VEqk5O8+NoiM7fr/LuvT/IXXypTiN1bbDm/UHqh7rWDF8+aS3j14gY/eW+Ru2sthkYtA/mU1VqHeqvDzskCp49WOLWzzHTOYlA2Oo6llmd2U5ldajFXa3G37rlyz3FvRSgYx1hujdTU2STPcjZKyxXZMSIcnsjYOSxMV0rsGMlTKQTC8uLcJj97f55Lsxvsmh7m2MExSmUhNcLMbItfvbfAWCHlP3xjF6f3pARS+uGd2MNEvFcN9b8DODJJWG7BxXtt3rm2yu31TbJMKUnC3qkyR3YPsHssx6hVik6xqqjxtG3Y+Wh3DOsdZTZTfvzOIr/5cIPHpof4xpE824ccd+uGX3zcYuZum28dG+IHx8pMFyGXCHlRUq8ghrqD8/NNfv7xMudmaqCO4qCh4xz1hmNkIM83D0/xx4crTBWiMl1M/giaSxaQA6hDJVB84MkUapvKStvjvDJghOFiQjkVktiPGzxGFVWDM8RzaOFgwIII//v1WV5+p8bBvRN879kx9leEGzXlxbOLXLi2wndPbuNfPzXGeOrxGiqCUSACmbrCtXXH+dl1bs7VWW2CF8/EqOXo9kGerA4yXrSk4gI50T0r/yiKO3VKPDjvjCUL1D+pKGBwET3ZuKOpaGBD4kmD7naNIog6xDsyNSyZhBfPLPCjt+sUR4Y4sitHteRZaRjev9lgbX2THzw9xr95aoRqGg/tGxuOlSlYDT3/plg2MkermdHKAjAq5YRy3lCIlLWRWDnUBpLkETQ30j1xJQYv8WCOKrhAVIUevROxODgxOCMQz5tEKiKcppDuUbuMRB3DSUa1WIfGPa5cv8W7H9/m0yu30Y0FpvKbDNsWov39XYbSxtPBEejkPI5KmrG97Nk7JOwZgokilEycpxKarO6Jxociws+KqHNKDPGOKFY91nuMM3hj8dah4hFvwg6HBK7NdI9QehMmbjqh4fABmTUw3FppcWelRcOHkxZo3HRQpZgIO0dL7BrJUTAuTFiIPFkcC4lseTypoTagcfE9Xg4kbDbGuHvURf5/AVglmvuaSvfnAAAAAElFTkSuQmCC;clipPath=inset(0% 0% 0% 0%);" vertex="1" parent="1">
          <mxGeometry x="222" y="525" width="51.39" height="43.1" as="geometry" />
        </mxCell>
        <mxCell id="uLIR4AqjCjWGEGcUKFmw-27" value="&lt;font style=&quot;color: rgb(44, 143, 232);&quot;&gt;Internet des objets connectés (IOT)&lt;/font&gt;" style="text;html=1;align=center;verticalAlign=middle;whiteSpace=wrap;rounded=0;" vertex="1" parent="1">
          <mxGeometry x="197" y="582.89" width="90" height="30" as="geometry" />
        </mxCell>
        <mxCell id="uLIR4AqjCjWGEGcUKFmw-28" value="" style="endArrow=block;startArrow=block;html=1;rounded=0;startSize=2;sourcePerimeterSpacing=11;endSize=2;jumpSize=23;strokeWidth=4;startFill=1;endFill=1;strokeColor=light-dark(#2C8FE8,#EDEDED);" edge="1" parent="1">
          <mxGeometry width="50" height="50" relative="1" as="geometry">
            <mxPoint x="240" y="519" as="sourcePoint" />
            <mxPoint x="240" y="459" as="targetPoint" />
          </mxGeometry>
        </mxCell>
        <mxCell id="uLIR4AqjCjWGEGcUKFmw-29" value="" style="shape=image;verticalLabelPosition=bottom;labelBackgroundColor=default;verticalAlign=top;aspect=fixed;imageAspect=0;image=data:image/png,iVBORw0KGgoAAAANSUhEUgAAAFAAAAAyCAYAAADLLVz8AAAAAXNSR0IArs4c6QAAAARnQU1BAACxjwv8YQUAAAAJcEhZcwAADsMAAA7DAcdvqGQAAB5JSURBVGhDxZtZjCTJed9/X0RmVXV3VVff3dPd09Nz7Rx7iNylltQuxUOUxGNhS6JoyRApWiRAWrIBP9h6sgEDfrB1wbAAP8qATIgUDJGULEoUVzyWl0mJN7k7O8fO1dfM9H3WmZkRnx8iqqd3lqQgk4ADqK7OKzLzH9/x//4RJaqq/D82H78NgCqgIMqDHQp6+BfkyCfsUTyFenKFTi6sN3MWt5q0OzkT9X5mhgYYLBlKUpCYAiuAWlQMGIMVg1FBel2KgoAiyJHnCE/x423yowAYIUPQAI/6wwfvPWqATY+eDBi8hKsckBXKditjaa/Lra0OC2tN7m3u0s1zhqpVjk8MMT/Wx9xIwsxgymA5IZEImAgGwSiISngG03sO0xteBEUPIf3xwfgjARhA8aj4+5anJj74fQAFj/qInoCK0PXCXlaw1sxZ2c64ubLLwvo+zVyo9vdxcrpKdSBlZb3JnfUW6nMmqoazU3XmJweZqpcZHUgYKFnKEgbIK4h6RAKAHsGLBSBRRcSjGp5N5McD4o8IoI8AKhofGAyoBG8WEARVT4EnF0OrgJ1mwcpum+uru9xaa7F74KlYy9xYyvm5Ic4cG2SimpIYOMiUu9sdrt/Z4aW7e2zs5hhjmBoqc2amyqnxOlODKdW+hIoRUlUMGsKCKF7AiCHB9Dz7sP04QPwRAXSAR8Xgo5OIKuKjq4jBiaFVKDvdgnutLjc2ury02mZt84C8tc+xoT4uzk9ydnqY2eEStRKoU7odR+E85ZKlVLZkwHrLsbjZ4ubKFtcXN2h0YaA2zOR4lXPTfZwdSZnsK1ErJaRGESlQimBxlFCV4BsSvOH/O4AaAfRYvIYIbiSkltwbGpljq51zfaPD9bU2Sxt77DZaDNWqnDk2xPnpKqfG+xjtsxigmRXstHOWtzNu323RbmdMjvZx6lg/47WUWiUlTQyZ86wdZFy/1+LynQa3NpponjNd72N+ssaZ6QGO11OGK5aBVEkAkQSvISIG3I4C2IPgHw+oqLp4dQi2R/s6jPk/oH+vDlUfkoIaChG6hWO741nezbl1b5fFjV1WtzpoWmJmssb5qQqPTdc5Xi+TCLQKz3ZXWT3osrC6x+LqHne3unQyi4hgpWCwapger3JyaogTowOMDyTUy4bUCPuZ59ZWm8t3Gty422Jt+4BySZkerzA/Wef05CAz1RLDZUNFwEhIcSEe914oBJ/wJ8TMV7aXcY7DJuqL2OP92AWgonjpZbe4MyaA+C+FVwoF5z3tXFk9yLi2vs/V9YJbqy2KPGO2Do/M1nnoxCiTI33UEsE4aGU595oZ1zeb3FzPWbyzT9ZuMzFoeejYIOdPjDPQX2Z5dY8rSxssbHc5yAxD9QEemq1yfrLCfL2P0UpKORVygZ22Z2G9wYtLa1zfaLLZgv6+Mhemalyc7OfU6AAjfZa+kiExkGBCCFIX4zVAgmpvoxeKNJwX94DB9CDx2nM+waMh0MYOVHr0JFwWOjCoCIXCQe5Za3VY2s65fa/J9Tu77DSa1Ab6ODU1zMNzI5ybrjBaFhIP3cKz3s64vVvw0mqb63d32d07YLCUMj9W49zxIU7PVpmoWvriO3iEllNWdrtcWtrl6p1tVnfbICnHxoY5e2yQs2OWE4MpQ5USqRXawN1WweXlPa4s7nB3bZ/CGSZG65yeGeTkRInj9RITfSklqyQoIgaJhqEqqIRwFI4SKVDPDpVE49N55xQxeFEcDuPBhNQV3TiCKILD0C6UrXbOnUbB4naH52/cYX2niZoKEyM1njg3zoWpfmYGEvqNkBWenXbB2kHB8naby4ubLG62yEmZGB7g8dPDPDo9wGzNUksEVCniY4oYLIKJz9DFsJU5bm51+M7iAdfutDhodugzLc4dq/Pw3ASz9QpjVUu1nGCt0CiU5d2M7y41eH5hm91Gk7QoOHNslIvzoxwbLjFVswyWLWVrSHFHuKvHSdgDnhTFAYJivaBGEVcU6kXwONQUGDUYtQTaJnhjcB4Oup6NdsHtzTbfW9hgYatNp1swXi9z8USVizOjzI32U0sM4pRm17HWcSxstrm8uMXSWod21zM6WObi3AAPz9aZH+tnqCykESCjYLyGcGLM/RgcLaDXHNBUYa3luLl2wIvLm9y8u0+rqwwPDHDq2ADnjw9zYrjMaMVSTg25wGbXsbh6wM3FfW4sZuy0Cip1w4nplEeOD3NqtI/xSkp/Col4rFc8QiFgtKCkBV4sigUfsJG2qioeyLE+B7E4SfEeurmw03Us7Hd4YanNjaUGrUaXimlx9tQIj8yPcWqySr1iSIAic+x3CxZ3Wjy/2OTG3Tb7nYLUdjk3O8SjcyOcnuhnqt/S13MXKVApMKIYLPgEwUTrvw9fIOMeVXBicBJ5nECjgDuNnCv39nn+5jbL622sqTAx3M/Z2QEemuljupoyVLZUUoNzsL7vuL7a4FuLq1xZ3cNLiZnBKo/NDXFuup/JWspQydJnHIkRrID4ggKDN5bExQiZeafgQQuMQMOl7GXKZpZz6eYBV5cbrGzu4b3n3PExHjk+wvnZASYGDQMCeeHZz3LuNT0vLO5x8+4e9za2SMRwemaC08fHOH18gGNVS83klPEYBziLV4O3DmweAUwRTYP7HKlswrbHex9CuZgQl2P9rUZAUjIVdgpY3sl4aemAy0s7rKzv0j9QYXa8yoW5KhdnqoynCdVyglhhzym3d3Kurezz0uIOyytbVAb6mZwc4uxcjZ+YrTBZSqiXEipWKVTwqqReQ+JRn2uh0CyEzZZyZa3Niyu7LN/bZLehDI9UuTA/ymPH+zg/0Ufdhri2X3jWO46b9xrcXN5gea3BTksZGxviwtxQOH+0j8EkcDwvHq9ZtCaL+JD1VRQ1DgQMFqORRkQ+GSJOcGeHBxwGxagBHyzRG49RsF4RUdRYOljudQpeutfkykqD68tbNJotRmspJyfqnD8xzvxYhZGKpZpYxAobmefFuw0urbR5cXmP7UaLyUHPhakRLs6N8dB4heGKpWwVow4wSK5dbZHydzd2+dRXdljcbDA0knB+usITZ8Y4M1ejnoYSKSuUncxx9d4+V9cPuHanyV4zZ2qozPxIwsOz45yfrjFaNpSEUJF4Da5mhEJ6RMBDrFYMge+pOARBYq0asTuMfDGsx7wcxYnYQ6AZBaiLQCc4sUhUaNoK6+2CF5d2uHRrm6X1Do1Wm5mJKudmB7kwPcr8WJnB1GIToQOsNz0vLO1wdWmb2ystDlqGs8fq/MJPjfKq2T6sFnifIi3NdZ+EP/qb7/Hc1zb4J295gjc/Osj0kGUQwCn7ueOlgw7P38u4vLjN/vYegzbj7NQ4F89MceJYPyNlQ59AWV0YHVWcCC4mo0Qs4nsxL1qVGqwINpaAgUf0UDsCYq+GjWiqhFo3hHgT8rQ4PA6vgojFeANOESN4E1QfL9BwyvJ+wZXFLa4trrG+1abwFY4dq/PQqWFOT6TMVSuMJAaxQsMrtzYLPvG1Nb78jdu8521n+OdPHaNMDh6k4702RPijTz/Pc9/d4rff+wZeO25oO89aw3Nns8mVW9tcWlilm5aZHKvy5NkJnpivMl0JVAUfaKYRj0QrQMBpYPsKIcOqxto5ZjIVRHrazaH6EFE6CmZvx+FGyMoar0FQEZwGycpisCqoDzBryEkIHhHFiaWLYV+V9f2cb13Z4bsLm6we7FJOhVefPc6FY0OcnKgwUQqKzl9f2edDf3WNX3nzCd791GSM5QXiC69tK/y3Zy/zty8c8O5ffDWnq57v3NrkxVu7HDRyRiopT14Y5VXzdU6NV6gFRRPwWBXQYAeoosZHCwuPbDSCc/jygdX1ziDS+J6i09NSDns4tMZwDof7JfYVrFEkWLTGATAaigKFILf1ZC41qISPRxCFAtjIHNfWG3zz5g5Xbu3QdiUqfSmvOTvEmZNDXFro8qkvLPFrb5zi1147StmDxSHOOz0Qwx9+7jqf+NoOkyNDlKTL3QPPRDXlnU/P8ZMnB5gbEMoC+Bwr/tA1jViUoAgbDbpg4JUGwWP1vjroRSIpDQ9uDjOtxxDKxB6NDT0E8CQGwwBOuCbgJLgIYaLB6rwoXgKnlEh5VBSDx+BRDf05DAWgXklRrAEvlj2v3D5wfOqFFn/21XX6KsJYzeNdwt5GxnvfPMavv26UPqcYzTChc6iZNhNmm1cdT/nZp44zPlFnbKSfR0/2cbIq9JGDcxgs1lusF6xXrHoChA5jCgxFcBWCBYDSY5qoYtRj1GFwwSq0wOBQPERrFdVoYQo4lByVPCQKXAwT4WM0DFKwNj3cH2KtQyiwdBHyUBxEo1ctMJqTmBxj8iDNFY6qKCcGLKdGLdM15SfPjfKzrxnj+GCHut2klBR0gSxqjZJroTmGF+9u08oND80NsavC7338Nqlz/Nbb5rlQD0B5UiyCdQ4X62RrTVQogvUFSzGgobYMMa9ndT7Qk5hpw/uEuBSU4pBRg6Oa6MbuiPtH/zz6Xy/DaBI2xcWyH0wMFaGC7SUuIo/0KDmgOARHCYvFiLKfK5++tseffv42b3lyjne9dox27lm6s8/IQMrJ8QolddieNmPU8/D0CK87McyECOUMkkywTkhESPAYHFbCqCkOZw2ZScnUUqiQqyXzCZkm5N5QKOQKmRoyL+QecjVkPqGjho4KXRW6aun4hEwNuULuhdxLUHo85N6S+4TcJ2Teknkb91kKb8k1Hov3C/vvnx++S2Q+pfCWQi25FzK1OCo4ynS9pdCQcMTHoZMSHdNPUUAZOJ4a3jQ/xKPjZfpdk7LvYsUgzheqGArnsHicMSxklt/980XK4vhX75jn4qCSiMf7QIJzLCuNjJfW92jkDhPjXE/icVEyk6jiGA0W6CXUsdEWQgA3weGtgtWYTIItxQwePqIaXDXGSi/gwsZhqIh3xfggQITEA7kN909cuK8DjIGJ/gpnJ+vU0wJ8hjUVRAwNZ/jk1TYf+uIyb33VKL/++jGqLigwngLIsArOlBD1Tr0aVEO5pMZyqwN/8PEFSpLxm8+c4tygkOJxqhQm4epqi0/+/Q22Gi1qA5aygFVIJdSqXQyKx4hijcWqwXlDoaFSsHgSPCKQI+RYjEKiBeDxAl4UlQQNLDEORA5aBFDFgiSHWVxwMXYmGBJEPEYc3ghdI+CFtFBsrGhaLqfbKbhwYoa3vfYUI2lBIoKqYd9Znr3a5cNfWOStj4/y7qdHqcUBLihC6FJDLgbxPtcgIgYT8ggrHfidj94isQUffOYUFwYTUi1wQMNYPv73t3lhcZ+3//RZLk4MkAohmiiUJHLCGKy7GvS11EASJXUPFB5sVM00xpIAVS91BE7Y277/CfzPxPkNFelhGAk5FAItEXaaBbuNLlhhrFZhvGJIFZzCdtfxlSsbXLp8j195yzken+6PmRoaueHZK13+5ItLvPXVI/yL149SJSRAJ0W4l6Y4IxjEgxQYcoQMIcfhcQbyxFDEaC2EyZjeeA9V+pioJIxZqFu4ubTLx567ws17u9RRJq1gvfCV763yma8vs7vXYcgqwxbWtzv81Vdv8XdX1iiygmELQxZqVqhZYdAKIxZGDNQNDBqoxc+wEUatYdTCmCkYM11GTcGoVUYsDCeKuILv3trkI5+7wV98YYX//dwt/uZLL7Gy3qRsoGqhmhoG+ivYNMEXRRTyQ8oyKJYcbxRvAgCGnuhqkB51I8fcH/Pepzikur2wIsRJ816YUSDPSQrFqFI4uHq3xecvrXN9o0HuAo1ptOE7N/f5+vUd1ndz1Hk8nqWdnK9c2+HbC0122tGivEKoAOl65dLdHf7485f5nb+8zH/+5BL/5a8X+MNPXObPv3qLha0mBYpXRbxgXRQSFNoqXF094BuX7jAzUuF9bz/FLz49h1PLF79zj62GIwHK6im7DKt5lPeVlIK0N/cRSXuovSNx92B9gvUJAR7BqFo8Nk6mHIk5PsV6Q3JIBYJ8E4cDkxq8CYG8MFCYFEwJIwF+UHL1wbXjKIb9AmKRpISYJK4qcBgtsOoQH5JVo9HmYD/MzDVbGc12xn47Y7/dppMVsWwL6Sg8mEMpcE5pNB15R5io15gaShkbqlDuL9Nstsm6IQGUVSipgPNoEYUMH4iJBwqTRF7ZM5pQLh5tvbsfGq1qgqd0WFlYHwbBQwhWPahFccbhDYDHqDLZr5wbU6b7hcSETNdfhpMjyqkhZaQMCYJVYbxPOVN3zNUc1SRYMRoIt1Wl3wpPnD3G+555nH/7rsf47Xee5t/90ln+zS8/xjvfdIH5yUFSgshpJHBLDTUjZQsXZgZ59MQQL1y6zf/4y2/y0c9/m/2tVV53fopjgyW0cDgFxWLF9nws1iqhxDusCWPMVhMSm4/3C9wADOIi5nGJRjgdyMPEtGggHRLIrwA4R1E4CqOoWMpGeP2j4/zrX30tj5+ZIk0SHIaRsuFdr3+I9/zsI8xPVjFWMAIXZ/p53zOP8fafOsFgLSW3KXlSIk8TXBLkrUSEgcRQTwwjVhhJhOHEMGgNFSOIMahJcaZEISmOEo4UxDBZK/PWJ2Z55s3nmZ0b5/yZaX75TQ/z+gtjlFNLnlo6Brrq0SyQ6YxIi6IPJj4O7JFmlDBYPbvUBCm0CDWD1+CSwFLX8PsfXaaUdPngMye5UBWsFqhacpvwtVtbfPobi/QN9jE62EdqEgoxGDypL2JZpmF8TEohYXmH9YFrGgGvEtxfJNbRgqJYCaXcEQMIg9aL0kek/iAuhANGQ+WhECmZoWtLdI1F1DHgC8oOnAg5ykGesbaxy7FKyjvfcIHJmsWqR4zjIE959mqHD31pgbe+eoLfeGqMeszwXgKTFbUhKP1gABcpJRkffMcpztU4FBCdtXS8cvVuk0tLq+y2WqgPq62setJY1wYALE5DJjcCVgOAITTECRsTRNHA/kPRH6AMIEXPPATPy31Ie+eJ9uJ0oFByCKbFGwPGY5wLE0ESKLYtWY6NDPL4/AQztTSoNyYoNs084dkrHT705X8kgGqCAy91hd//6HVSC+9/5jRna5aK5Ki3kXcpzhsOnKcbq4PQbawND19G8BpeumdFPa7XA8ZFvbAHUgzMsR0xwyOtd59DYOP+3v+hj1DdIEGCCGJGz4JDyhwwhrLpTZJ71HgQoZMbPnOlzR9/aYGffzwAOEQc9H8IQEVZ6gq/87HbGAMfeOYkF2pQoUC8oCZl3yuXl3e4vNyk0Q1yv8fjJcVrgo9Cg8TYanwo7501OAwGQykye48Ebm/if1FuUqIsJgEmIZJnlbgEILi5RGB8HHzpKURR9fYIPrqxaIE3DsWQYJmol7l4coj54TJ9mmMlx4mllZf59NUWf/zF2/zc41O8/6kx6v8wgD5K38JSF373o7exBv7lM/NcGFRSzTEFuLTCl27v8tlvLTM1XmNmuEwlyhJiEoo8jLhqqJ/LiZCokhdKJ6QmrDEMWINxnlw9BSG52KD5BxuV4J6RlcERqw2Y3Y+TRoPrargMo6BW8NZSaMiuVj2py0l84HV7Xc+VO/v0pSn/7A1nOFn1iHZwpsRuXubZa00+8oUFfv7VU7zv6TEGAVEfsvAPAzDHstRR/uvHXiIxygfecYZzdSHRAovQMCl/+o0Vbt5p8EtPz3G+XkEEtgtPu5sxXCkxYA02qnfbnRxRYbBkSW1wn44Ku62MUmIYKlvK0eV+kMt+v9ZzWx64SoEM2MwKbm3ssb6xgylXOD45wpmRfuoxROxmyueu7/LtF+/yq298iNfMlhGf4Y1lN0/41LUWH/nCAm979SS/8UMAvB9ujjyAACV1lHwea1eDM8n97KcZNZsxbAz9ieKs4Vs3Nvhff/s9ri9vkQpUU6HtDM9+Y4WPfXmR5d2McuKppsK9jS5/8cXbfPb5TXa6SimBPitUrKWUWGxq0ETIjNA20LJKy0LbCLk1SGJIE0PZWkrWkqSGUiqUE0gSYbtV8H++t8pXvn2P7QasrB/w3NcX+OaNHTomIbEJ5cTSn4YVEJlGqkYJj8EAqQY16R9qRwAMHC/BYVGUFC8JIgQRVS1GhZJCnxNSJ6F2icX8VgOu3Wtzp5GR+zBR3yyU23vC1V1ls6s49TiU9abj2kbGwp6nUYTYFY4Fgb7jhG+8tMl//9h3+I//87v8hw9f5d9/+BL/6cPf5MOfvsyN1QMciqjDeIfVsJ7HqCX3cGt9l+sru5w9Mc0/fe1J3vITJ6nWh3n+5h5bB2HljUrM1GrxGtKPio9R+z4mP6yFPo7ugHiRRBjDYUMI+HJ42NKREm0RsqiwJCp45ygkxDTivKwrCnyRYUOIJwdydfi8S5JnpD7MlRSGoA1rgRVPvVri+PQQ87N1TsxUmZ8dZH52mImxOuVSAj4H7R7KWNqrmESopCliEtZ2M+4cCHeant1Gk3KqlBM5nLR32isGwzcKRsMyFZFeQfHDW5QzwwgEvCNB0MC349iAFGjkiYVCZixdE6b8yiI8NN7Pmx+d5dT4IIk1eCyDFeHJ04P89ENDHBtMMSZFscyMVnjjhXFeM1dluGx6GQiJK+/LAg9N1viFJ47zG6+f4/2vm+H9r5vl3a87wc88MsXMUJnECGINWIMzhsIIzkBqhFNTdZ58bJpWt8Vnvn6N71xeYqKa8IbHjjHabwKRF/BJWFQFQccUdSRxjbVoWAERNYTYgnH1cDkEUAn8JxDQ0LwBb8I0YTheECIFDCRC3myxuZux2XHsdT0zUwO88TWnmazX2O8qax1P13ledWaUn7o4SaWcst1W9tpKvS/lqZ+Y4fzJYXJgq6VstmC9bVhrGzbbykEGGQneJqi1eLE4k9BVw14GGx3Laifhbke42/asdjzrbc9m25OrcGq6xhsen+XJR+Z46uE5nnpklomhPg66ns2OstosWN9uoVpg0ySshTQZaoo4M2ijZQe3VsKfHkFTgkIjhXY1RLmArsex0DH83scWKFn4wDMnOF+DEh4tDIW1vLje5LPfusVBx1GqpBgTKonesIREFBNOHDlBUR9+fiASj8aJ86AlBI4icfWn6H315+iIH7kszrId9Z7oPBAmjkTw0XyMCS9sfSBH3aKgnWWcnh3h5x6fY6rsSejgpcx+nvDpq00+/NxtfuY1k7z36QmG1SM+zk2LgFpEQbwv4mOEAwWOha7l9z6+REmU33zmBOdqUFJBXbDXlsDKXoc7uznt4n4l8SBoR5v07hEBOGzauz4AFuZtH7z65QAe3Q6ROkwIuUixQYLyE5+oAIr4ftYD3mMFhvrg+FiFsb6UsoYpAGcs+4Xh2WsH/Onnl3jL41O89+kxRlTBhR/xqJEw66iCaKGK9H7rYchQFnLhDz56i5J4fuuZk5yrCYkYxAlKgTdKQUIRBdCXv11v44fAcIhgCNzR9ALIvVMe7PaB7d6ghYitaJwsOiTTh8MZSLYDkKCwKBYBKtaTmDjNqgYT9c3dXHn22j5/9twCb3lihvc8Pc4oocpRE9aIQQx5XnxYXS+GFkInivvqQxXQUWhiaCI0bJgTaUlCLgKJIKkgpfChJJiSwcRtKfHAJ+5PiZ8j56Wg6f1zeeDaB7d7Hy2BKwmuZJCSwaThW0uCLwmuJGhJMCXBpgZTspi4nVtDUyz7xnBghaZIeE+EjljEKN5CA9gDukbIsBQ+hAZVj3S1q11KfP36HV64sY1Ph9lyfXz1egsl47ETKSOlnETCaqsCC2JJ1R8ucOy5XhiX+xbyytaTVoJ1HLXVePRIux/XHuzrUOqK4kCvh7CAKZwfZvbCab3kKD2zjZRK1eDEgiiiGal6vBgOXMLCXsqtlX3mp/s5P12i5nMGXJMnzk3xyGydFIfVAulqSzMqfOnSCl9/cRVfGqEjVXbVUmhORTIS38X2piBNkP1LPi6pICSGsNogPjAcxruXNeHoWx/uPLpFBOw+ifo+LSaKMBYhhhrC+moTu38FgFGGCbcOTqhYHDYozJpj46JJpyk5JXKEcgn6Ek/Z51SKA376sVmePD1C6gssBeJ8pg7LTjNjv9HFmZQcS25MnKn3WDyiIT7kMY2n8ArFtmcJISa9sj0IVGivBLC3NOMHtiMXHLXi3sQ+R62UcFJv82jP/mViRSArBonTBeGHQ2H5XRB5rTqGqmXqfUmY19YCyX2h4SXCLVxP1YhASey09wDhNkd1EnnZGz0IxtH2w4492L7/ELyyj/sAhiOHXvp92suPvXyYfQQUII18N6x0DOCh4adhYdGoj8pRgWTqFDXRmjSQ5l52izNsPec8jHPiceJi5yGjHW0B9qPbP7iF815+toSvw3b44vGfo1YXNu5f/yCgcePld9CwM+wLsPWKOh/fL1wRSGq4T6iUwo+Mwk9nhZz/C5tbbRQrj8KgAAAAAElFTkSuQmCC;" vertex="1" parent="1">
          <mxGeometry x="297" y="522" width="81.6" height="51" as="geometry" />
        </mxCell>
        <mxCell id="uLIR4AqjCjWGEGcUKFmw-30" value="&lt;font style=&quot;color: rgb(44, 143, 232);&quot;&gt;On premises&lt;/font&gt;&lt;div&gt;&lt;font style=&quot;color: rgb(44, 143, 232);&quot;&gt;(Sur site)&lt;/font&gt;&lt;/div&gt;" style="text;html=1;align=center;verticalAlign=middle;whiteSpace=wrap;rounded=0;" vertex="1" parent="1">
          <mxGeometry x="290" y="576" width="90" height="30" as="geometry" />
        </mxCell>
        <mxCell id="uLIR4AqjCjWGEGcUKFmw-31" value="" style="endArrow=block;startArrow=block;html=1;rounded=0;startSize=2;sourcePerimeterSpacing=11;endSize=2;jumpSize=23;strokeWidth=4;startFill=1;endFill=1;strokeColor=light-dark(#2C8FE8,#EDEDED);" edge="1" parent="1">
          <mxGeometry width="50" height="50" relative="1" as="geometry">
            <mxPoint x="337" y="519" as="sourcePoint" />
            <mxPoint x="337" y="459" as="targetPoint" />
          </mxGeometry>
        </mxCell>
        <mxCell id="uLIR4AqjCjWGEGcUKFmw-32" value="" style="endArrow=block;startArrow=block;html=1;rounded=0;startSize=2;sourcePerimeterSpacing=11;endSize=2;jumpSize=23;strokeWidth=4;startFill=1;endFill=1;strokeColor=light-dark(#2C8FE8,#EDEDED);" edge="1" parent="1">
          <mxGeometry width="50" height="50" relative="1" as="geometry">
            <mxPoint x="435" y="519" as="sourcePoint" />
            <mxPoint x="435" y="459" as="targetPoint" />
          </mxGeometry>
        </mxCell>
        <mxCell id="uLIR4AqjCjWGEGcUKFmw-33" value="" style="endArrow=block;startArrow=block;html=1;rounded=0;startSize=2;sourcePerimeterSpacing=11;endSize=2;jumpSize=23;strokeWidth=4;startFill=1;endFill=1;strokeColor=light-dark(#2C8FE8,#EDEDED);" edge="1" parent="1">
          <mxGeometry width="50" height="50" relative="1" as="geometry">
            <mxPoint x="542" y="520" as="sourcePoint" />
            <mxPoint x="542" y="460" as="targetPoint" />
          </mxGeometry>
        </mxCell>
        <mxCell id="uLIR4AqjCjWGEGcUKFmw-34" value="" style="endArrow=block;startArrow=block;html=1;rounded=0;startSize=2;sourcePerimeterSpacing=11;endSize=2;jumpSize=23;strokeWidth=4;startFill=1;endFill=1;strokeColor=light-dark(#2C8FE8,#EDEDED);" edge="1" parent="1">
          <mxGeometry width="50" height="50" relative="1" as="geometry">
            <mxPoint x="652" y="519" as="sourcePoint" />
            <mxPoint x="652" y="459" as="targetPoint" />
          </mxGeometry>
        </mxCell>
        <mxCell id="uLIR4AqjCjWGEGcUKFmw-35" value="" style="shape=image;verticalLabelPosition=bottom;labelBackgroundColor=default;verticalAlign=top;aspect=fixed;imageAspect=0;image=data:image/png,iVBORw0KGgoAAAANSUhEUgAAADwAAAAzCAYAAADLqmunAAAAAXNSR0IArs4c6QAAAARnQU1BAACxjwv8YQUAAAAJcEhZcwAADsMAAA7DAcdvqGQAABS+SURBVGhD1ZpbjGXXcZ6/qrX3OX2Z6enL3DjDuYhDihQtSiYcRTIQGwoiJDJsU1aAGEEMG8pDZNgPNuDEzxEQ5CFBHPjBD3HkWAigGLASEbEdCTFli6KViDZNirfhzHA4F04P59r3e5+z96rKQ619uklJloIkBrIa5/Q5+7J2Va2/qv6qdcTdnb+G4e6YGTlnzAx3x93JOePuiAgpJVR19DmlhIi8d6r/oyF/HQp3j+iU7D7vV1xERsoCo8//3yn8vaZ/r/LASLnv9f/7Dy+vbkh57TtiZt9VIhH5nsL+vxjvVbr7/L8nw57CDggdQvbNmXN2JE7+VcPxMtf3u3JveGdt2bunE/8HmcPL23dcK9259xrJcSkKuyOAigK6d2u21r+bQHujnPnOEz/4+A6Jvwvy3nvs+w3ZhwrCqLjDuxSOFZb9CpvnYsh3Py0mCzj84D70f3f8lXZwx/at8J6I5eoivvAdCrcjtAqC45hbuUlAIlqObtmne2eS7/OlW46R9d99XMqlvu9FgaHsO/Zuo3tR2HAQI7kU+IYOHaRFFJFOekfcGgchdFRcDJMWXMmeGJqQzXHfe+AeGvbWIIzVDSvn4ny8h+Bxb3df2D9Gd97KsT2F9+7p5otjJoImo5eG9Myp6YFXuBiigEsoOzKoIZ4HDoqTIgZ4A2q0UrHZJt64tcX8asPQFEXj4ZIBwYoQWuTxeButSLd4iiAYFuuxL4h4qFWMGWrEnKNjAkio7C4ojnrGMEjCibmaDz9QMaNC5VUxSouq4K6IpCKHAxkxGziecEk4jtoAF2OoY1xbM774p1d58+4uh6YmGKsVoUExtAhtImX1gzyEoCF4JoRVFxQByVjBQ6htiIOGVnhnNLSgv2AmLi8GdpTMTmssbba870iPz3z8NI/OjiMOQkZpypUVLtUIH0pGWm9C4TJr8gGIsU2fr7+1ze/96WWOHpvm7/3IAxw/mBDLKE5Vls/2A3yU85xcgA2h8N6Kx+OlfBYj3KGAI+Yqio2icBjSRIrPOou78CfnV7h+7R7/6G89yN/94GFqHJEWoY05vcYkFcwQmGzdSgB31ASRFhNYaBNf/NYSz792g0/9+Fk++dgMM3UYxYFU4Orv8t0YYYIwhRSbDzPsNkabHRGoVOjXSi8JYe5upliL7lPnBGnkuXF8tRWeubbJl5+b5/ETU/ziJ07yQM9ButUtblqwKEVwVSemdQM3cMFI3N+Cq3e3mZs5wLmjY4zXIJYhN4g14C1uGTfDDMwiEBuFMnqE/q0Wbmy1/I9bW/z+K8v8zv9c4AvPL/L0ays8P7/NjY2GtdZp3AM9OaNmiDu4IWTEM5ghHnBVWiaScWa2ZvbIBG/c2+T6ymAv4JMwUgl/jlCEA8SzeS7QFHOSGbtVxZ9c3eE/fv0dnnxkmn/4kVkenExUYri1qBgiinuFk8jShZpYj269VhvnxflNvn5pkVduN9xd7bEz7FEJHKgyD0y2fOhMzY89McMPn5zgiBi1Ga6KawlsUmb04teScTFar7i9K3z5/BrPvHiLp56c4ef+5gkOacY9kTvVJQyFx5yKh6KGYKKgypbD+ZtLmGceOj7BTD9Ru6AmVKKR71wR1wKeluQNlbXUPqSiocF5dX6b//z8fb56oeXS+gwr9TF2Jo+zPvEA99NxLq1P8bULO3zt9WVurDYMFExbYFj8MIJaQLzzxKCKKspsT3ni8BhzvZrz19eY3zRaT7gJYuDeOUR3L6iT0QB9DBXubRiXb28xO5U4PZsYr4q/ekTK8I+IMmqQTFBXXJTsQnbYbuHN+9tcXk5syFGoZhCpUDW8coZ1Yjh+iNU0w8UF49LiDhsIbVLQyBoRruLBLhmTcDm3RDahL/DQjHLueI9bK8aFO0N2A8CIGGAR2bu5YtEEE6fGSQ4Z5a27myyutzx0bJLjkxUR2AuMSWQUEwENCisEXEr8RqnZaZzVAezIBK4TiCWSBeNyHBRMlSHjLG3W3Fpq2R46kCJEeQjZKV0k2FtpyYgYhycqPnhqCvPEG+9ssNBEFBdvEFpyZN8yl6OmnXOHuCvZOX9zFdHEueNTTPcrkjgijriXPBvRz8UjnWhYFRFUEoKiIqgm0IRoycMkjBr3KhDhgnmFMQZek1ypXBErwSaWN+ajAlFcBRFDaMFbJurEBx44wIOzfa6/s8it1SEmDt6OVB2hOgAsuJSlSnBzreHNG0scPVhx+kiPflV4sEedVhaW1KUeCf93wqfFAuqiglYJc6XNjokhErm1shb1FsExFRolSEqJJ4GCmLODo7pTFWaGKNoFMZzZAxVPvG+CrbVt3npnyLYLnhJCokJIJWOAoFKyFSIMEd54Z4e1TeeR4xMcG0/0CpTpOOk+uqidXzhBL4PhAo7lTDvcprJtaskhqBnqLYmG5G0o4Zkq72LNgMadLIZLR1vKfEGhgmc6YB5Rl4QB433lkROTTE2Mcen6CmsDMEllYduYq8yh4i1qDQ7cb+GNWxtoVfPoiXHm+kpyLylVC7WjEIR4qLggxYDBs0PQg73EI8f6nD60w6StUlkuRuv8SUmemcwbnJ0c8PCRmol+olXBlUJMO6ULigosRzWuB6XoqXBqeowzJ6Z5Z2GV6wvbONWe95dHGqDm0UjLrtxYHnDl7iZzs+M8fGSCyVSiL0oWwmeLEEXzUFC9+FUxjsO4CD92boaf/ehxfuhYQm1Ai9BKRaZHpkJ9wMNzzs/8jSP8+KPTHEgE/6Uuhonh+9WXMKqoU6lQ4fRx5sYqHjp5kJ3c8Nr8AjteSsOSxjrTqYiAVuwKXL2zw9bWkEdPTTM7XqEW9LDLWIKh5dEhRPBbxyIXk6PxoKBiHK3hY6cmefLkOIdqiyAiETnMjfGU+cDJPj9yeoJjlVHnNvInCl4h+6J1GmXjTqaYTz2TcA5WwkPHehw61OPl6+u8vdHgUsMo2ofpFCJ/rjfC5dtDJnvw+KkJDoyBa4NrBglFtVA09/CMFmg9sl12J3sJX+bU1qI0jI85h2d7TE4o6hm1XAITjPWUwzM9Dk0KPWvo54baDC0g6op83BHPiGXcI59knEwbzQqDGjh9sOKhE1PcvL/D62+vMwwdY64oQdDgzsKt1cyVOxucPn6Is9M14xodhIiVkbLi5vAb8QBLUDfHJIpGa1toMnjFDn0uLWRemd9ieaspfDbw4iJsDDMX3tnm/L2Gde1DPYZq1M5ukXaQSC/W+XEneOlkuChWIvb0WMUTZ+YYG5/g1eurLDaR7zt0Co4mSQyAS3fXWd9teOjkDMfGaioLVoMr5IRbKvCIPJvEI9LaEPUcNFMrvNdn0O9xZdv58vl1fvsbCzx3tWHNx/CqBpUgBknZYoLnb8Dnn1vmS6+uc3HT2VAlJ/Dk4QKeI31BxACIRoAryRNKwhVMnfEED8/1OHN8nCvvrHDlfkMDkRILZUn//HOf+9yCwR/95XU2B84nPnSEh6eh9kzhX9EqIZp5ESkzLhnHMEm41rgkNlx4cy3z1fOb/N6fr/KVCzu8uTbGdnUASzVIwj1IRTLDJbGbxrmzAefn17g4v8zyoKWa7NPv19RaBVnxMFK4V9AQtS6uCSahVDKjEmFxe5cLb28wdXCc95+apB7FVkOyu//Z3SG/9d/e4MThA3z2b5/hsSlDXTFqKKjQLkpLBoa0brT0GEqPtaFw+d42L1xZ46X5hstLPVbbMTz1kKoiJyLKm1KZUjskWgxnoIlGEpobxpo1ZmSTs7PCh09P8JFzB3ji5ATHamPMhrgOcalx70eCkFIFecIKGlqpePn+gN/66hUOHaj5lZ98P2cnlSqDWkY3gddurLC2Zbz/xBRH+gETU8FoIjSJ4WKRDmgRNwSlkYqL9xq+8I1b/Juv3OKLLw14YeEg93WOwdghqPqogeaO6XT/C3Hzltobem6I9hjWh1nUB3llcYbff6nlN756j3//7C1evbvLUJRkTsqBrKG0DGjI0qISDF5FqXBOHax57OwsdxbWefP2RgQvifytd3cbLswvMTne45FjB5moEy6Ke0Rm99jdIzh5gXaFSo/FDeOZlxf4yvldLmzMsFWfQOtD1CQqj10AU0VI9LLSs2jCGdBIYpD6ZKlIDj0zancqrdD6ILvVYa7tzPGVS84fnN9kfqci6yTOWEmJGaeNpqNHSwdX1OFgP/HEqSmUzPmba2xYaf34EL25MGRhYY3Tc30enK6o1cFASSBVFAPS5T8wappCHJY2Gm4sDli1KZp6mqH0yCMaWtLHqNSLl6tiouVYBdSl2GDfc5wsCUsT7LQT3F427m9mWiqgQlzoudKnpqZCpPNjpUXRJJyd63Hm8DRvXr/PvTUrJa2hb8xvszuAD549xNGxRG1B6rMIWaog4QKOkTEahEyipXQrmwE6WKMerNDbWaa3s0Rvd4n+YIn+cJnebnkNlqlHryXqwTK93SV6g0XScJFqsEQ9WCLtLsX3ZolqsERvZ4Vqa4M0bEtqzKg5iRqlB1KV0rXrxES8OTJRc+70YVa2jdevL9CKIlUf+eyXrvrqxoDP/sQZfvRYn3FrIClNyasVkDwDTisJQ8GjCX57dcg3Lq5weTnRaJ8k0TALTj1y1wgwXrLcu7qTHQkqVa4FI4oaNgqSiTzg3KHMxx+f4cxsRbKMEW6HUEhnG+nWhewVrSqDDN+8tctv//fLnJ1O/NOnHufMGMin/t2r/sjDh/nMx45ydrJiDCPoRjw86Pee6F6aLAADc7ZaZ6d0Qt5N4uJVeHuZZ290xzpmLvvmLfVNOebUApOVUEcxWxjT/jlHbQEoHY8GuLTZ8vlv3uHWtRV+6ZMP8fFzk8iP/sYFnzs6xbmDuxxMUfmgURd1VVketQOtMJYitCjR0yYiuFiQqSJG7O/ufR+JJIaWZoKJkCV2H6JJIGTpDBv/jcihMVkUA7F5EN0aMJIVAxQabDgblri4kFheMn7yiQn+ySeOIB/9t5d9djoxzTbJ6iBWJUDFFkkIaeLRViE6HyBgEUCii1xSV7dMnQBEMT8qfiIfxfdC5iySPNJ1QYrCVSE8iEcbWS22TzwhFqVk1nh2ZfEckiOl1gbYsknurPd48ugOv/pTp5FP/+4F/9m/c5rHDtVUwcMxCR+SuB+N0neEoU5hKwjQ0hRhn49Kl8bEMd+rZbUUz0We0T0Q6HoXxD3iuEvAPJc5kocxHMga10cDopSP+8bVpZb/8Mc3eXjO+dWfPof8wu++7L/41GM8MTtGr1zkAq0XbcpWm0r4hnq0WaysBOKIGwmJntNI4NJMRwJ6I/8PgbrN7A62ThQUsgfa7vFQYB1+7SQE8Uz26GELKUpHj53OLIZo5OVXl3b4l09f5sHDiV/7qUdRyY7m6EUm7zbKIIlQm9NzIxWraWE6kiNqB9qiT6UW+0TatfjMY8921AKKY9HWjfkDjaWPZQ5uaMTg0kWNVwX0HMZw+kDljji0JJYGyqVF4+KCszwI4yQ3amupLFMbQEUjVWyvWuk8KoYqbAwz37pwncv3lxmYo6psDpxXr97jxv11hi6QKla3W759ZYlrCwNaS6gmVneHfPvKLd66s8jAHFdleWfI6zfuc21hjWFZxYWtXV66eoe37q+QVVFVVneGvP72Pa7cXqLxYGOjqNlFYZey7rGH+fZay5f+/C7/+g/f5l/90S3+0zfvcmOtwTT6WYGoKGXFUzF8alABJSFUrOy2PPPiZf7i2gLzuy0L2Xl7I/Psm2u8eHOL2zuZVXNurA559sIKL93a5e7AWW6Nq+sNz1y8y7euL3Nvp2W5NS6v7vLcW4t8++Ya93Yyy9l4c2WXr126zws3V1hsjfXGuLbc8NylNc7fXGeYC44LOqTEgGiIOogxNLi+OOTZN5Z54R3jpTvw7KUVLtzejl1G0ZHBXBz1NhD58194wX/5pz/Ik7NjiMBba7v8zh/8Bbs6zpHDU/RE2Br0uL4wYGoMTs5W9CpY33TeXjYOTPU5edAY88zSMDG/tM3UmHJmukeVlKWBcmd1h4kaTh6qGUvK0o5xY3mbifGK9830GfPMwm5iYb3lY+cm+fsfOcFcX6OcKyvqdIEvXGi7hdfvNzz9l/d48foWdVXxww8m/sHHTvDE8R7KECfx+kLL5/7rNR6cU379qUeQz3z+Jf+lT3+AD82OoeKstM7F+VVWdoObuismFY1Ef7dSC+tnoUXxFExMHTKJ3LXbPfhrI3vHeoXUtAhNicy1ZxLGsHDic9OJRw/XTFQdyYjrYpT/Hj9h3MjK/FZmfqVFEU5NK2enasbVQFqyJF5fbPkXT1/h1Fzinz31fuTnP/+y/+OfeYzH58bolaZ6bo3Wgq24S+w9SZc2SucgEglRrHXixLWx1VlSzL7uY6dA+GchOYXHGaAijCv01PER+YjXKJJ3xzw23XcQBtE4pZcijQlOxmkQLi4N+c2n3+LsdOLXPvUI8hO/+S3/8OMnOTJRU0ushJaonEcsKgJblGCx7aJld4CScvYCSzwwFiMKjFB8BExy0SCVnBMpKT7H/pNgWihL6Z15ycNeaGUq5CgTfWwt5SgWu5ymysCdha3Mt1+/xweO1vzKpx9Hfv2/vOJV3acukI2GXS4ksopirSgMGqmlcDGXyIERVMrWpAdh2duHErJouT9mNY1AlCwM0CnsQrRlXUpnJUb4caAvfsIQP2yRIkNHYoJWCikLWRONQDZHhi2PHO7zyY8+hLy2sOHmXWiIHKajRN/99iJm9K4/7F6s3YX9InBZCdnPfNgP61i10Sp1FioK56Lc/qs7vw2VQ4buPYwV0O/uCLgHKWrLPWMCBytl9mAf2fX4cWlMHYJ03/cm2gPtnjgx9oTr5tgTcv+xgGXAuxNs/3XdkOKjjHw7znbXhwx7I56xZ4qQcG9ei+Zx9LpFkOy5c594nHe23DekMCtPI/q4X3w8tk7pVCgrvqecBx8n8mMnYKdAiNltje25QqAmOiAdBqVDFF0FF9fEonR+0QXECF1xLrZwVDrn8bBHXFls1M3pXazsjBGCxV+kgFHZ6F1o6q7rGFKMWMFuxyfiRad2t8PQbcFSSEf4dcQK8VAunt/hKfrU4hEr4mdrsc/F6OrIOP8LjgP2nbZlaUwAAAAASUVORK5CYII=;clipPath=inset(8.82% 0% 0% 0%);" vertex="1" parent="1">
          <mxGeometry x="516" y="524" width="60" height="46.5" as="geometry" />
        </mxCell>
        <mxCell id="uLIR4AqjCjWGEGcUKFmw-37" value="" style="shape=image;verticalLabelPosition=bottom;labelBackgroundColor=default;verticalAlign=top;aspect=fixed;imageAspect=0;image=data:image/png,iVBORw0KGgoAAAANSUhEUgAAAE4AAAAvCAYAAABNAvziAAAAAXNSR0IArs4c6QAAAARnQU1BAACxjwv8YQUAAAAJcEhZcwAADsMAAA7DAcdvqGQAABSPSURBVGhDzZv5k13HVcc/p/u+bfZ90WgkWVISy3FCYuEQhy3YBodiMXGAFFuROPzID/Aj/BKTkFD8AVQooKjEBqrCUkDAgQAOsXECxJtkO4ljW4u1WpI1o5Fm5r137+1z+KH7vnkzE9vjhCDOVNd79767dH/7nNPnfE+PmJmRpPoi1QkUTCGAOUUFVDyY4JD0txMxMMUEVARngjMwgRIwjAyN50wwDFRBFTVQg1JBLfVHDBFwziPicM7hvcc513ujyM569u2KbAbOMMAhGCAomGEqBAFzglnskJPeba8pFbRmiokREtyZgSGUgApkGJklNOMdoLFHmvqGGpjFZ4oDAZEIknPuuw5Wv2wBLqShplnHMARTRzBYKwPXOl00RFh3BJ30abIJmoASDI8RsXI06hkjTU/LORyKpG6pRIAFEAuIgeAwXESNqH3/l6CxFTi1EhEH6oASFUfAYRjLHeOJY5c4cekKooqTPkReS/oG7iyCHQRMFEdAVCip0RpocdOeMd4yO8CoN5yV0QLEY3icSLzeDMyBOEx26ir+92W7qZpAMEwCiqDiWQnKl55b4qEnX6I12mB+tEZLDGc76fiG54zggYlhYkBJibDcrXP2UpfZ8Tp3vWMXb58bpCUlUk0ktejLJPpKRKLG7djH/u/LZo0DNBhimmbb0THHl08s89ePHmdicoifuO0Gbpio0/Cw4YpfX6Jpxk9DMCTeb8qVQvjKN5f4j6Nn2DU5wPsO7+bNUw0GpMSbIniQLFommp4i/3+AM6BURVEAupZx5HSbzz78AlnT84EfOsD3zNRpIXgX/ctOJF5l0XdhmAjgMQO0xES4lAv/8uxFvvKNC+xfGOd975zn4KinaWV0Cy4jTlWErH/tvx6ySWmi/zAKg444nr7Y5e8eO43WG/zkbft460yDlgRqYniLZrezJog5DI/iMBMUowBy8ag4ppqO9x6a4nsOTnH8wiqPPr/EuXWjcB6T6BsVI9rC9ZdNGodCqca6g29ezbn/ixc4/co6P/WD89w616DpHJkZdSGthtuHYEkXNv2SDiytJ1XD4meWmgqcWDcefHaJ05c6/PCNY9z1lmEWWhl1EYLE8MSnKPJ6ymZT1RhnPb/W4U/+4ywPP5czPT7MoZmcllPQDFWouzT/YkiFVPWMLcfCBkoRuA1DEzPEBEHxYphztF2Nk6t1jl8omGvk/OLhce46NMFo3WESIzqnEo2les91wHCzqYpiDk5fvsLTx5aZGGrwlvFAs5ujq120UxDaJd12IO+UhHZB2Sko2xst9DVtl4R2iXZKtBviZydgXcU6AboKXcVypciVbideMzcAeyYc6+2SU6/krOeawEl6Jj2dvS6gsVXjsEAhjhO5ct9fPMv+mTnu/ZFpZloOp7HDSswi0pzvSPqVsN+E+8+FZLYmRhfhoafP88Wjl/m+G2f5wDunGM+qd0at0xSOuOuE3LZwpAROFcbH/vwpDkzP8mu3zzHT8nQL48pal7YapQgiMZKqZIuFbgBkMaoXM1wy1KgvQiAuEjE/hVbmGGt5XM3z0NGz/MvRJb73pl3c844JxrIUxKTMAUiZw/WRbeFIDrxUKB9/4CkOzM5w7x27mGh6XrxU8M9fPcGl1S6NusdLHMhORHEISmYBsRADE5dRmkNNMXPkRcni9BA/8rY5ds8M8PCR8/zbkSVuPTTH+w9PMpZFTRPb4t+uk2wxVSMX4XihfPKBJ9k/N8OHb19guun56tmcT33uGUamxji8f4Sh2s6NRNOF3gyxmLSrixpnBlc68MQ3LjLg4Rd+cDdv3zvMw0fO8dCRJb73xjnuPjzFRC0SDuB7PEBFRVwP2RKOBNQJxwv4xP1Psndumg/dsZv5pueJl7t86u+Pcvgd+/jZt08w1fQ71LcNqcw06k7KVIAzbfjLR85yZaXDB2+b5+Y9g3zx6Fn+9anLvPPQLu4+PMl0pol82OxZrw9s2/z7Rv7nNAaqIQ2yVFBpcnWt5PzyGicvr3B86SrHlq5y/DXasaWrvLi0wovLK7ywdJUX0vmTl69y+vIK55ZWOL+8ynJe0naOXBKwRo/3izSXRxP0MeGqApvrI9tMtRThRKF88v4jLM7O8Ct3zjPb9Dx+vuCPP/8iWS3j5rE1WnItDeS1u29iqKQrNWYBYkRfJQHv4JUwwpPnHSMjLT70/fPcumeALx05xz8fWebwoXnuOTzBREYCLelrYki+HTGz75iG2gwcgS7CyQI+8cBRbpid4VfvmGOu6XnsbM4fff5rHHzzDD9+4wijkYncJJZaJVXXqgzD24aexGsNJ3CmnfG5J5bodgt+6d0z3LJnkC8ePcfnE3AfuGWCyazPyNMCEXPe15u6KBt9iwuMASLbxxBJiPhtc8C0WTZNWcAn/o1IaYpRN2gAgwjNMmeqCYsjLfaPD3NgYnvb39cOTAxzcGKYg+MjvGl8JB0PsT+1AxPD7B0fZmG8xXjDaFBiEnNYNWJ6Z4br9bv6El1K/9nXa5rGpCaRjk8ugUqLLWBVI0TeOb0uZjyJi7boa7fFcQVwplB+54En2D8/yb3v3cNcK+PxszmfevDrTC1O8a4bxxhrOLLek0kc2cbYxNKs9DoYKXmAMqVfjqiNF9fhkSdeBi35wPcv8LbFIb5y5CxfOnKZWw/Nc/fhacYyA0J8gsW6Rw876cN0q5JUv0kkCWLSEflAI7HH1U0mmBriLGUnUeviN5cQAsxtNVUlIJwujPvuf4y9czPce8ceZpue5y4U/P1XT3H6Wod6XakTubLIfEhiMGIRxqWE1RDUWS8c2eg04FxiY3JKdXQ6jr3zI/zYLfPsmR7gS0fP8tCRyxw+tIt7bqkyh0hLxQf0m9JORVPdIqASCA4KqVGoJw8pTEo4+3SH9Z2TpOuOrT7OCkwcpwrhvs88xZ65XXzkzhl2NTzdrrFSwhpGjpKlZNtbnLFYG0ials4FgVJAJXo2R6SjYodiDIdFLfLmGKgJI03DMscXjrzMF44uccuhed5/yySTKeXqLQ69YbwBsUhkiBWYK+i4jIvdjMdOXOWZE8tcKxRzGSKul9KZi0SWanybdw0I7a1xnGFOeKlQPnr/MyzOz3Hv7dPsbhpZabGjXgjJKVfoV7NC33AqCwnpN7/FM1lq8Z7okGNXjLY4/unoef716DK33jTH+985yYTbuL66P9777UgE41pwPHJmnT/4h2Mcv9Yk9y1UHKoOJ/WY8ThFrISgeMBcE81Xt5tqieNUqdx3/9PsnZvlw7fPsLsJtWCIGiaKeo/go9N2ihFQHIpHTPDJ4ZpBkAhXdBtxFRORVGMl1RCiU0Y8mGdNhAefvcCDR66yd2GG9xwcpuWiY4+9rCplUcN3Al41UQpk6YZL6yUPP7/Ow9/osOpHMe9jACke1FMqeA/eBbCY+RgZ2t0GXEmO53QwPvaZp7hhdpqP3LHArqbgQuyliWIiuOggwZWAJuPNwFJCLyHWUvFx4bA48FiZslSXTUu/aAQOwZFxFc/fPH2BP3v0MqurJeNyDa8FSj2FwwlsiI56YwDbNLE6DqkYHq8vQZS2elZ1hEJGEQQvgdIUcY7SFMzjKFEnaG0UXINAjXpxrR+4OB85jjOl8buffoJ989Pce8ciu5oOlB6FbUQ/5sVAkks1h2msdVoamEjUspJIkJrEqoNDqGEJgriISK8m4Ti+qnz6q6/w0HNr3DDf4PB8wZCUkXZPzmGjJ5u54FcDLmppvFZNCWKoeExqNMhoYogqpUEuRpCAF4cjcDnPeOR4g+cvglFjxq1t1bg4wNOF8rFPP8m++Tk+fOc8C5XGWXTGFieuZy4ORTQmZ0EcJrGeFX1gjIpMFUFR58jxtBXyELc4WO/aOMCnzuc88N/LnFyGn3j3BHff3GDCRcqr8qURsu1mWp3fetzfLIVdZaLsh4HR5Icrn1z5ZQHOFMbvP9LhH4+08a7Gm1pXtgIXbzyXKx+9/ykW53fxoTtmWWwaWdAY50iCIwFH5CvACkqUdalxakX5+ullLq+0mZkY4W2LI+wecDRRLhfGl09c5b+OrXJptcTwZHh8ijIK57lYZJxccRSasW/IWGh2yaQgOEVMcZbqZWlHwDY1YzuC0RcKkBHECKkg3jBjLDP2z7S49dAEN0zUaFqJF0VKj7mMZ68qH//CCo+e8WTe8Z65TRoXVb/Eca5QPvqZI+zetYsP3z7DYtOoaYi6JbGRFuyYMxqK0kV44uw1/uq/LvD4yYLlNc9w0/PDNzb5+XdNcdNMi2cvXOUPHz7HwydrrNoo3tepi+BNMYRSIHiP1Gp4hKybI6Gg8KBO8Wr4ENMt7SsWVZr0ascmBiKoZphzIAGnOTXNqZVdxrI2d948wkfuWGBPoyRTBTLa5nnkVJdPPHiJF7ujNCTnZ96a9QdCEThJplg6AynTCunAshixIygh+i0jroqUGErbhKdevMLjpwrOhlnWhw9w2c3y+Kmcr59rs54rjVqdWmsE1xql3hwlqw+jtSG0PoQ1WkhtACcNKB2hhNzVKRpDWG0YslFCfYy8OULRHKZsjPRa0ff9Wx2H+giaDeHqg7ishfgWrj6ENsdZH5zlvEzx7Hl4eVnJiGPNEVbNeGkl52qnpCbCiKxzw6TrB25Dr+NMxTmr/EI0in5biIGtSgBTMjVaBlNDdQa8YSEnz9uUxSqDDWWw6cmcMDPUYM/EAIN1BfJe5Sq+18dQQOLOIxEH3iUNkZgjIpiTuEK+oZbYFLNeKS6GUA6VGqUf4uVV5aVLq5RI2rPiWFfjxIVV1kqPFxj2XQ5Mb2UFtwDTZwmbjiUxHS6ZbvQeRk2M9xya4YO3zXHXwYIfml/mxw+WfPD7prhl7yCDdWGoJuwZy5hslGRSRIZCNE5CWmXFCeJcbJuooziNklbmN/KHubS4Rd8YnKOUVAVRQDxtrfPC+TbLwcAJXoxrXePYy126MkQIxsL4AItjza3Apa71AbahcZvFmeBUEPOoeRTDWc5ME+55xwS/9dO7ue/ndvPbP7XA3TeNMd9yBFUyBwujGXMto2FFCqqT73QVE1G9tWrVmpuAS/nxG2sR8irPVQRLQAoCkrGmdb55YZULnQIloGqcuNjlzFVP4QegMPZO1FkYqm0HrpJ+wCocK0LCxQlBUvTf48Us4EUJIqy2S1autVntBHLipkTE4QXmhjIWhjzNXmU/ml/1nJ3KVot4Lel/chWPYjEFcS66hSBNzl2DE5cKAkJH4YWL17jUVrx3DNdLFic8Y75XZ9suUjErFXDpzWaRjokBpKbdICWiRpA6J1eM+x+9wO997jwf+9tLfPJz5/ns40ucuhqjsDrK7KBjYTSjWQMlYCnM8CFyb1vhewP4vKpIGlNFLjgipQRRIwTBJGMpb/LcmVUKHEul8eKlnA6ejC7TA9c4tGeY6P22SNSA7VKdqzQxpETZWwwREE/bPF/+5hIPPrPCf14Y5OjqDI9ebPKPz1zhmVNr5EWJaM5gTVmcajE2IDH9sbjAuE2k5eb3fqs+vXGJKZ6Y4S3gUpoX676g5uhYg1NLgYuFcXa94NjFEqkP0igLdg112T3tCBY2A2d9kTl9s1QdiFQeISbyHuIuJHGUTigROqXSKQNBY7lZg9HNjSLExay06MHmRjwzjUAzlLjkd6IuJ7KxT6rJ/I7ASyYUx1B5zPhEM4kxgzhK1+SllZLnlzucumZcXvdgDeplycGZYcZq0d9uA24nHZRUI3WmqANNu70HnPGuN41z500jvHV0nT1+ibeOd3jvoRFuXBigXhOC8wRxTA7X2DvqGSEgJXFrhQtYzO16G6UtNb5F3xJZsiMxEsEgxP12OBAfmRqranlCaTUurgtfu9zluZcd62UNMxjwJQdmhhlKi1cfcLFb/eBZWoSiHmwckzRNq20MZvhQUC/bHJqo8cvvmeXX75rj1390kt943xw//65JDoz5mH1oTNDHhxx7pmCkXuBC3IuuLtGU/VlgisOqM1vB26kYcXKiSNy6LQ6TuINeJC5gSsZq2eKZ0zWOnXeUWkMoGB0RFifqtADVlDVVD4s1zCiefkctyWar9FdQiRsFLVHlcQ6NlpTsG4QfWKxz15sb3LaQsadlDKB4IW5KlJKmN3ZPNpgeUTLy+AxLgW5yC+nNvfatZNNEv17bqghV1c1t8IMmjvUwyNde8hx7OaDSwEvO1KgwM15DMJyLY01TWHFV8YQzcJrobQyxAJZjVmziKJzF5B/JwNUREeqijHplLFOGpKQJeIlZgWDUVGlZYN90g92TQtN3kFQ9AiLnV/EUFomnjSjuVUBLCcGrHUsKoyKAPXXAENQqqhwQR0mDi2uei11H4TIalCyOe8YGBCPEGLa/Nya9OhKigpmnMChSTQEnaZt+8j0kU3Iu7tH1WUqZPELMLKIvibMqziF4vDnqOKaHMhYmGgzVDBfKpNnp/RZNWoihCmZJKzdaXIVT4zVadU/0dNvuietG9T0WbboOcmK2Mexh37RnJEv1FN0Sx1nvv1hiXaHwjrYIawhtMnLqdKVGx2W0naMjjq7Ez7Y42jg64mnjaUtGVzJyV6PtHGsitHHkrkbX1emkPHR6aoCxoYxMS3xIBU8TSLmiWRxe9EsbhlvBEIF+nbblmv7nbD8mxqg+Rvk1jLGasjhZp04CLbLcG544GOQC54rAx//0K+AGueUtowzWlDqBWgobSlysUWI984rIJ6e4JYhVLFJAEqtZZh4VJRd4YcXz2LHAueWMIhukkFp0BBLTCrOo6SI73x31nUqQkuBK6qWjVXS4dXfgN39mNzePOhra09A+4BIzulIqf/Xv3+DyWkG94QjecCgZgmjkwqqbeoPpOyFUTqaayF6EtmFAopgoHWqsFXU6eUZHM7rBkweXru1zUNVq0f+u74bEzqOmZAot63Lrvgb3vHuOSa/UAFHbDJwChQbUlFdWC/Kg0cdJXEVibWuD4t7a/54TTrjBBrLW+71afuK+ESOyymZCbkJuENLejuoRG/duHH83Jc01YlAXZbLpmB8UMolkruD5H5yIN3iprsvKAAAAAElFTkSuQmCC;" vertex="1" parent="1">
          <mxGeometry x="613" y="522" width="78" height="47" as="geometry" />
        </mxCell>
        <mxCell id="uLIR4AqjCjWGEGcUKFmw-38" value="&lt;font style=&quot;color: rgb(44, 143, 232);&quot;&gt;Bases de données&lt;/font&gt;" style="text;html=1;align=center;verticalAlign=middle;whiteSpace=wrap;rounded=0;" vertex="1" parent="1">
          <mxGeometry x="388" y="576" width="90" height="30" as="geometry" />
        </mxCell>
        <mxCell id="uLIR4AqjCjWGEGcUKFmw-39" value="&lt;font style=&quot;color: rgb(44, 143, 232);&quot;&gt;Systèmes d&#39;entreprise hérités&lt;/font&gt;" style="text;html=1;align=center;verticalAlign=middle;whiteSpace=wrap;rounded=0;" vertex="1" parent="1">
          <mxGeometry x="501" y="579" width="90" height="40" as="geometry" />
        </mxCell>
        <mxCell id="uLIR4AqjCjWGEGcUKFmw-40" value="&lt;font style=&quot;color: rgb(44, 143, 232);&quot;&gt;Fichiers FTP SFTP&lt;/font&gt;" style="text;html=1;align=center;verticalAlign=middle;whiteSpace=wrap;rounded=0;" vertex="1" parent="1">
          <mxGeometry x="610" y="576" width="86" height="30" as="geometry" />
        </mxCell>
        <mxCell id="uLIR4AqjCjWGEGcUKFmw-41" value="&lt;font style=&quot;color: rgb(44, 143, 232);&quot;&gt;Figure 3: Architecture à plusieurs niveaux qui permet aux citoyens développeurs&lt;/font&gt;" style="text;html=1;align=center;verticalAlign=middle;whiteSpace=wrap;rounded=0;" vertex="1" parent="1">
          <mxGeometry x="80" y="635" width="440" height="30" as="geometry" />
        </mxCell>
      </root>
    </mxGraphModel>
  </diagram>
</mxfile>
